<svg width="60" height="60" viewBox="0 0 60 60" fill="none" xmlns="http://www.w3.org/2000/svg">
<g id="Group 36163">
<path id="Rectangle 9" d="M60 0L60 60L1.35895e-05 60L2.67029e-05 -1.31134e-05L60 0Z" fill="white"/>
<path id="Facebook" fill-rule="evenodd" clip-rule="evenodd" d="M27.0285 23.8734C27.0285 24.3774 27.0285 26.627 27.0285 26.627H25V29.9941H27.0285V40H31.1955V29.9944H33.9918C33.9918 29.9944 34.2537 28.3799 34.3806 26.6146C34.0166 26.6146 31.2113 26.6146 31.2113 26.6146C31.2113 26.6146 31.2113 24.6557 31.2113 24.3123C31.2113 23.9682 31.6656 23.5054 32.1147 23.5054C32.5629 23.5054 33.5088 23.5054 34.385 23.5054C34.385 23.0469 34.385 21.4629 34.385 20C33.2153 20 31.8847 20 31.2981 20C26.9255 19.9998 27.0285 23.3702 27.0285 23.8734Z" fill="black"/>
</g>
</svg>
