<svg width="60" height="60" viewBox="0 0 60 60" fill="none" xmlns="http://www.w3.org/2000/svg">
<g id="Group 36165">
<path id="Rectangle 7" d="M50 -2.18557e-06C55.5229 -9.78512e-07 60 4.47715 60 10L60 60L1.35895e-05 60L2.67029e-05 -1.31134e-05L50 -2.18557e-06Z" fill="white"/>
<path id="Vector" d="M37.875 21.8999H22.125C21.429 21.9007 20.7618 22.1825 20.2697 22.6836C19.7775 23.1846 19.5007 23.864 19.5 24.5726V36.0272C19.5007 36.7358 19.7775 37.4152 20.2697 37.9162C20.7618 38.4173 21.429 38.6991 22.125 38.6999H37.875C38.571 38.6991 39.2382 38.4173 39.7303 37.9162C40.2224 37.4152 40.4992 36.7358 40.5 36.0272V24.5726C40.4992 23.864 40.2224 23.1846 39.7303 22.6836C39.2382 22.1825 38.571 21.9007 37.875 21.8999ZM37.2103 26.3209L30.4603 31.6663C30.3287 31.7705 30.1667 31.8271 30 31.8271C29.8333 31.8271 29.6713 31.7705 29.5397 31.6663L22.7897 26.3209C22.7104 26.2599 22.6438 26.1835 22.5937 26.0961C22.5437 26.0086 22.5112 25.912 22.4981 25.8117C22.4851 25.7113 22.4918 25.6094 22.5178 25.5117C22.5438 25.4141 22.5886 25.3226 22.6496 25.2428C22.7106 25.1629 22.7866 25.0961 22.8731 25.0464C22.9597 24.9967 23.0551 24.965 23.1538 24.9531C23.2525 24.9413 23.3525 24.9495 23.448 24.9773C23.5436 25.0052 23.6327 25.0521 23.7103 25.1153L30 30.0961L36.2897 25.1153C36.447 24.9944 36.6447 24.9413 36.84 24.9676C37.0354 24.994 37.2128 25.0975 37.3337 25.256C37.4547 25.4144 37.5096 25.6149 37.4865 25.8142C37.4634 26.0135 37.3642 26.1955 37.2103 26.3209Z" fill="black"/>
</g>
</svg>
