<svg width="40" height="40" viewBox="0 0 40 40" fill="none" xmlns="http://www.w3.org/2000/svg">
<path opacity="0.2" fill-rule="evenodd" clip-rule="evenodd" d="M1 20C1 30.4933 9.50727 39 20.0004 39C30.4935 39 39 30.4933 39 20C39 9.50668 30.4935 1 20.0004 1C9.50727 1 1 9.50668 1 20Z" stroke="white"/>
<path d="M18.417 18.9846L18.2021 18.5331L18.2014 18.5334L18.417 18.9846ZM22.045 18.9846L22.2606 18.5335L22.2602 18.5333L22.045 18.9846ZM26.04 20.8937L25.8244 21.3448L25.8245 21.3449L26.04 20.8937ZM14.4209 20.8937L14.2053 20.4425L14.205 20.4427L14.4209 20.8937ZM24.2826 13.9879C24.2826 16.2471 22.4652 18.0754 20.2316 18.0754V19.0754C23.0254 19.0754 25.2826 16.7915 25.2826 13.9879H24.2826ZM20.2316 18.0754C17.9991 18.0754 16.1816 16.2472 16.1816 13.9879H15.1816C15.1816 16.7914 17.4388 19.0754 20.2316 19.0754V18.0754ZM16.1816 13.9879C16.1816 11.7265 17.9989 9.90039 20.2316 9.90039V8.90039C17.4389 8.90039 15.1816 11.182 15.1816 13.9879H16.1816ZM20.2316 9.90039C22.4654 9.90039 24.2826 11.7266 24.2826 13.9879H25.2826C25.2826 11.1819 23.0252 8.90039 20.2316 8.90039V9.90039ZM18.6319 19.4361C19.6457 18.9535 20.8186 18.9537 21.8298 19.4359L22.2602 18.5333C20.9765 17.9211 19.4876 17.9213 18.2021 18.5331L18.6319 19.4361ZM21.8294 19.4357L25.8244 21.3448L26.2556 20.4425L22.2606 18.5335L21.8294 19.4357ZM25.8245 21.3449C27.1308 21.9687 27.9642 23.2937 27.9642 24.7516H28.9642C28.9642 22.911 27.9117 21.2335 26.2555 20.4425L25.8245 21.3449ZM27.9642 24.7516V26.6308H28.9642V24.7516H27.9642ZM27.9642 26.6308C27.9642 27.4457 27.3092 28.1007 26.5076 28.1007V29.1007C27.8681 29.1007 28.9642 27.9914 28.9642 26.6308H27.9642ZM26.5076 28.1007H13.9566V29.1007H26.5076V28.1007ZM13.9566 28.1007C13.1538 28.1007 12.5 27.4446 12.5 26.6286H11.5C11.5 27.9881 12.5928 29.1007 13.9566 29.1007V28.1007ZM12.5 26.6286V24.7516H11.5V26.6286H12.5ZM12.5 24.7516C12.5 23.2925 13.3335 21.9685 14.6368 21.3447L14.205 20.4427C12.5523 21.2338 11.5 22.9099 11.5 24.7516H12.5ZM14.6364 21.3448L18.6325 19.4358L18.2014 18.5334L14.2053 20.4425L14.6364 21.3448Z" fill="white"/>
</svg>
